<mxfile host="Electron" modified="2024-08-25T12:26:16.967Z" agent="Mozilla/5.0 (Windows NT 10.0; Win64; x64) AppleWebKit/537.36 (KHTML, like Gecko) draw.io/24.6.4 Chrome/124.0.6367.207 Electron/30.0.6 Safari/537.36" etag="DouiKVaM45X9-fi8M3eA" version="24.6.4" type="device">
  <diagram name="PÃ¡gina-1" id="wMBzhhmCwBxQDzJuzDIg">
    <mxGraphModel dx="866" dy="524" grid="1" gridSize="10" guides="1" tooltips="1" connect="1" arrows="1" fold="1" page="1" pageScale="1" pageWidth="827" pageHeight="1169" math="0" shadow="0">
      <root>
        <mxCell id="0" />
        <mxCell id="1" parent="0" />
        <mxCell id="wwEhSpKqhu7WoPCeO-P2-60" style="edgeStyle=orthogonalEdgeStyle;rounded=0;orthogonalLoop=1;jettySize=auto;html=1;entryX=0.5;entryY=0;entryDx=0;entryDy=0;" parent="1" source="wwEhSpKqhu7WoPCeO-P2-20" target="wwEhSpKqhu7WoPCeO-P2-38" edge="1">
          <mxGeometry relative="1" as="geometry">
            <Array as="points">
              <mxPoint x="521" y="208" />
              <mxPoint x="521" y="208" />
              <mxPoint x="521" y="239" />
            </Array>
          </mxGeometry>
        </mxCell>
        <mxCell id="wwEhSpKqhu7WoPCeO-P2-63" style="edgeStyle=orthogonalEdgeStyle;rounded=0;orthogonalLoop=1;jettySize=auto;html=1;entryX=0.5;entryY=0;entryDx=0;entryDy=0;" parent="1" source="wwEhSpKqhu7WoPCeO-P2-20" target="wwEhSpKqhu7WoPCeO-P2-40" edge="1">
          <mxGeometry relative="1" as="geometry">
            <Array as="points">
              <mxPoint x="521" y="190" />
              <mxPoint x="199" y="190" />
            </Array>
          </mxGeometry>
        </mxCell>
        <mxCell id="wwEhSpKqhu7WoPCeO-P2-64" style="edgeStyle=orthogonalEdgeStyle;rounded=0;orthogonalLoop=1;jettySize=auto;html=1;entryX=0.5;entryY=0;entryDx=0;entryDy=0;" parent="1" source="wwEhSpKqhu7WoPCeO-P2-20" target="wwEhSpKqhu7WoPCeO-P2-49" edge="1">
          <mxGeometry relative="1" as="geometry">
            <Array as="points">
              <mxPoint x="521" y="190" />
              <mxPoint x="885" y="190" />
            </Array>
            <mxPoint x="880" y="230" as="targetPoint" />
          </mxGeometry>
        </mxCell>
        <mxCell id="wwEhSpKqhu7WoPCeO-P2-66" style="edgeStyle=orthogonalEdgeStyle;rounded=0;orthogonalLoop=1;jettySize=auto;html=1;entryX=0.5;entryY=0;entryDx=0;entryDy=0;" parent="1" source="wwEhSpKqhu7WoPCeO-P2-20" target="wwEhSpKqhu7WoPCeO-P2-47" edge="1">
          <mxGeometry relative="1" as="geometry">
            <Array as="points">
              <mxPoint x="521" y="190" />
              <mxPoint x="708" y="190" />
            </Array>
          </mxGeometry>
        </mxCell>
        <mxCell id="wwEhSpKqhu7WoPCeO-P2-67" style="edgeStyle=orthogonalEdgeStyle;rounded=0;orthogonalLoop=1;jettySize=auto;html=1;entryX=0.5;entryY=0;entryDx=0;entryDy=0;" parent="1" edge="1" target="wwEhSpKqhu7WoPCeO-P2-39">
          <mxGeometry relative="1" as="geometry">
            <Array as="points">
              <mxPoint x="521" y="160" />
              <mxPoint x="521" y="190" />
              <mxPoint x="340" y="190" />
              <mxPoint x="340" y="239" />
            </Array>
            <mxPoint x="534.5066666666667" y="160" as="sourcePoint" />
            <mxPoint x="310" y="220" as="targetPoint" />
          </mxGeometry>
        </mxCell>
        <mxCell id="wwEhSpKqhu7WoPCeO-P2-20" value="Select new Base Model&amp;nbsp;from the above" style="rounded=1;whiteSpace=wrap;html=1;fillColor=#d5e8d4;strokeColor=#82b366;" parent="1" vertex="1">
          <mxGeometry x="440.25" y="120" width="161" height="40" as="geometry" />
        </mxCell>
        <mxCell id="wwEhSpKqhu7WoPCeO-P2-38" value="&lt;div style=&quot;font-size: 8px;&quot;&gt;&lt;span style=&quot;font-size: 8px; background-color: initial;&quot;&gt;Lags Sequence =&lt;/span&gt;&lt;/div&gt;&lt;div style=&quot;font-size: 8px;&quot;&gt;&lt;div style=&quot;font-size: 8px;&quot;&gt;&lt;font style=&quot;font-size: 8px;&quot;&gt;[1, 2, 3, 4, 5, 6, 7, 8, 9, 10,&lt;/font&gt;&lt;/div&gt;&lt;div style=&quot;font-size: 8px;&quot;&gt;&lt;font style=&quot;background-color: initial; font-size: 8px;&quot;&gt;183+1, 183+2, 183+3, 183+4,&amp;nbsp;&lt;/font&gt;&lt;font style=&quot;background-color: initial; font-size: 8px;&quot;&gt;183+5,&amp;nbsp;&lt;/font&gt;&lt;span style=&quot;background-color: initial; font-size: 8px;&quot;&gt;183+6, 183+7, 183+8, 183+9,&amp;nbsp;&lt;/span&gt;&lt;span style=&quot;background-color: initial; font-size: 8px;&quot;&gt;183+10&lt;/span&gt;&lt;span style=&quot;background-color: initial; font-size: 8px;&quot;&gt;]&lt;/span&gt;&lt;/div&gt;&lt;/div&gt;" style="rounded=1;whiteSpace=wrap;html=1;fillColor=#b0e3e6;strokeColor=#0e8088;fontSize=8;align=center;" parent="1" vertex="1">
          <mxGeometry x="431" y="239" width="180" height="80" as="geometry" />
        </mxCell>
        <mxCell id="wwEhSpKqhu7WoPCeO-P2-39" value="&lt;font style=&quot;font-size: 8px;&quot;&gt;Lags Sequence =&lt;/font&gt;&lt;div style=&quot;font-size: 8px;&quot;&gt;&lt;font style=&quot;font-size: 8px;&quot;&gt;[1, 2, 3, 4, 5,&lt;/font&gt;&lt;/div&gt;&lt;div style=&quot;font-size: 8px;&quot;&gt;&lt;font style=&quot;font-size: 8px;&quot;&gt;183+1, 183+2, 183+3, 183+4,&amp;nbsp;&lt;/font&gt;&lt;span style=&quot;font-size: 8px; background-color: initial;&quot;&gt;183+5]&lt;/span&gt;&lt;/div&gt;" style="rounded=1;whiteSpace=wrap;html=1;align=center;fillColor=#b0e3e6;strokeColor=#0e8088;fontSize=8;" parent="1" vertex="1">
          <mxGeometry x="270" y="239" width="141" height="80" as="geometry" />
        </mxCell>
        <mxCell id="wwEhSpKqhu7WoPCeO-P2-40" value="&lt;font style=&quot;font-size: 8px;&quot;&gt;Lags Sequence =&lt;/font&gt;&lt;div style=&quot;font-size: 8px;&quot;&gt;&lt;font style=&quot;font-size: 8px;&quot;&gt;[1, 2, 3, 4, 5&lt;/font&gt;&lt;span style=&quot;background-color: initial; font-size: 8px;&quot;&gt;]&lt;/span&gt;&lt;/div&gt;" style="rounded=1;whiteSpace=wrap;html=1;fillColor=#b0e3e6;strokeColor=#0e8088;fontSize=8;align=center;" parent="1" vertex="1">
          <mxGeometry x="159" y="239" width="80" height="80" as="geometry" />
        </mxCell>
        <mxCell id="wwEhSpKqhu7WoPCeO-P2-47" value="&lt;div style=&quot;font-size: 8px;&quot;&gt;&lt;span style=&quot;font-size: 8px; background-color: initial;&quot;&gt;Lags Sequence =&lt;/span&gt;&lt;/div&gt;&lt;div style=&quot;font-size: 8px;&quot;&gt;&lt;div style=&quot;font-size: 8px;&quot;&gt;&lt;font style=&quot;font-size: 8px;&quot;&gt;[1, 2, 3, 4, 5,&lt;/font&gt;&lt;/div&gt;&lt;div style=&quot;font-size: 8px;&quot;&gt;&lt;font style=&quot;background-color: initial; font-size: 8px;&quot;&gt;183+1, 183+2, 183+3, 183+4,&amp;nbsp;&lt;/font&gt;&lt;font style=&quot;background-color: initial; font-size: 8px;&quot;&gt;183+5,&lt;/font&gt;&lt;/div&gt;&lt;div style=&quot;font-size: 8px;&quot;&gt;&lt;span style=&quot;background-color: initial; font-size: 8px;&quot;&gt;366+1, 366+2, 366+3, 366+4, 366+5]&lt;/span&gt;&lt;/div&gt;&lt;/div&gt;" style="rounded=1;whiteSpace=wrap;html=1;fillColor=#b0e3e6;strokeColor=#0e8088;fontSize=8;align=center;" parent="1" vertex="1">
          <mxGeometry x="636" y="239" width="144" height="80" as="geometry" />
        </mxCell>
        <mxCell id="wwEhSpKqhu7WoPCeO-P2-49" value="&lt;div style=&quot;font-size: 8px;&quot;&gt;&lt;span style=&quot;font-size: 8px; background-color: initial;&quot;&gt;Lags Sequence =&lt;/span&gt;&lt;/div&gt;&lt;div style=&quot;font-size: 8px;&quot;&gt;&lt;div style=&quot;font-size: 8px;&quot;&gt;&lt;font style=&quot;font-size: 8px;&quot;&gt;[1, 2, 3, 4, 5,&lt;/font&gt;&lt;/div&gt;&lt;div style=&quot;font-size: 8px;&quot;&gt;&lt;font style=&quot;background-color: initial; font-size: 8px;&quot;&gt;183+1, 183+2, 183+3, 183+4,&amp;nbsp;&lt;/font&gt;&lt;font style=&quot;background-color: initial; font-size: 8px;&quot;&gt;183+5,&lt;/font&gt;&lt;/div&gt;&lt;div style=&quot;font-size: 8px;&quot;&gt;&lt;span style=&quot;background-color: initial; font-size: 8px;&quot;&gt;366+1, 366+2, 366+3, 366+4, 366+5.&lt;/span&gt;&lt;/div&gt;&lt;div style=&quot;font-size: 8px;&quot;&gt;&lt;span style=&quot;background-color: initial; font-size: 8px;&quot;&gt;549+1. 549+2, 549+3, 549+4, 549+5]&lt;/span&gt;&lt;/div&gt;&lt;/div&gt;" style="rounded=1;whiteSpace=wrap;html=1;fillColor=#b0e3e6;strokeColor=#0e8088;fontSize=8;align=center;" parent="1" vertex="1">
          <mxGeometry x="810" y="239" width="150" height="80" as="geometry" />
        </mxCell>
        <mxCell id="wwEhSpKqhu7WoPCeO-P2-81" style="edgeStyle=orthogonalEdgeStyle;rounded=0;orthogonalLoop=1;jettySize=auto;html=1;entryX=0.5;entryY=0;entryDx=0;entryDy=0;" parent="1" target="wwEhSpKqhu7WoPCeO-P2-68" edge="1">
          <mxGeometry relative="1" as="geometry">
            <Array as="points">
              <mxPoint x="200" y="360" />
              <mxPoint x="200" y="399" />
              <mxPoint x="520" y="399" />
            </Array>
            <mxPoint x="200" y="360" as="sourcePoint" />
          </mxGeometry>
        </mxCell>
        <mxCell id="wwEhSpKqhu7WoPCeO-P2-50" value="&lt;font style=&quot;font-size: 8px;&quot;&gt;Last five points&lt;/font&gt;" style="rounded=0;whiteSpace=wrap;html=1;fillColor=#b1ddf0;strokeColor=#10739e;fontSize=8;" parent="1" vertex="1">
          <mxGeometry x="159" y="319" width="80" height="40" as="geometry" />
        </mxCell>
        <mxCell id="wwEhSpKqhu7WoPCeO-P2-80" style="edgeStyle=orthogonalEdgeStyle;rounded=0;orthogonalLoop=1;jettySize=auto;html=1;entryX=0.5;entryY=0;entryDx=0;entryDy=0;" parent="1" source="wwEhSpKqhu7WoPCeO-P2-52" target="wwEhSpKqhu7WoPCeO-P2-68" edge="1">
          <mxGeometry relative="1" as="geometry">
            <Array as="points">
              <mxPoint x="341" y="399" />
              <mxPoint x="520" y="399" />
            </Array>
          </mxGeometry>
        </mxCell>
        <mxCell id="wwEhSpKqhu7WoPCeO-P2-52" value="&lt;font style=&quot;font-size: 8px;&quot;&gt;Last five points + the day before&lt;/font&gt;" style="rounded=0;whiteSpace=wrap;html=1;fillColor=#b1ddf0;strokeColor=#10739e;fontSize=8;" parent="1" vertex="1">
          <mxGeometry x="270" y="319" width="140" height="40" as="geometry" />
        </mxCell>
        <mxCell id="wwEhSpKqhu7WoPCeO-P2-76" style="edgeStyle=orthogonalEdgeStyle;rounded=0;orthogonalLoop=1;jettySize=auto;html=1;entryX=0.5;entryY=0;entryDx=0;entryDy=0;" parent="1" source="wwEhSpKqhu7WoPCeO-P2-53" target="wwEhSpKqhu7WoPCeO-P2-68" edge="1">
          <mxGeometry relative="1" as="geometry">
            <mxPoint x="521" y="429" as="targetPoint" />
            <Array as="points">
              <mxPoint x="520" y="379" />
              <mxPoint x="520" y="379" />
            </Array>
          </mxGeometry>
        </mxCell>
        <mxCell id="wwEhSpKqhu7WoPCeO-P2-53" value="&lt;font style=&quot;font-size: 8px;&quot;&gt;Last ten points + the day before&lt;/font&gt;" style="rounded=0;whiteSpace=wrap;html=1;fillColor=#b1ddf0;strokeColor=#10739e;fontSize=8;" parent="1" vertex="1">
          <mxGeometry x="431" y="319" width="180" height="40" as="geometry" />
        </mxCell>
        <mxCell id="wwEhSpKqhu7WoPCeO-P2-79" style="edgeStyle=orthogonalEdgeStyle;rounded=0;orthogonalLoop=1;jettySize=auto;html=1;entryX=0.5;entryY=0;entryDx=0;entryDy=0;" parent="1" source="wwEhSpKqhu7WoPCeO-P2-54" target="wwEhSpKqhu7WoPCeO-P2-68" edge="1">
          <mxGeometry relative="1" as="geometry">
            <Array as="points">
              <mxPoint x="708" y="399" />
              <mxPoint x="520" y="399" />
            </Array>
          </mxGeometry>
        </mxCell>
        <mxCell id="wwEhSpKqhu7WoPCeO-P2-54" value="&lt;font style=&quot;font-size: 8px;&quot;&gt;Last five points + one day before + two days before&amp;nbsp;&lt;/font&gt;" style="rounded=0;whiteSpace=wrap;html=1;fillColor=#b1ddf0;strokeColor=#10739e;fontSize=8;" parent="1" vertex="1">
          <mxGeometry x="636" y="319" width="144" height="40" as="geometry" />
        </mxCell>
        <mxCell id="wwEhSpKqhu7WoPCeO-P2-78" style="edgeStyle=orthogonalEdgeStyle;rounded=0;orthogonalLoop=1;jettySize=auto;html=1;entryX=0.5;entryY=0;entryDx=0;entryDy=0;" parent="1" source="wwEhSpKqhu7WoPCeO-P2-55" target="wwEhSpKqhu7WoPCeO-P2-68" edge="1">
          <mxGeometry relative="1" as="geometry">
            <Array as="points">
              <mxPoint x="890" y="399" />
              <mxPoint x="520" y="399" />
            </Array>
          </mxGeometry>
        </mxCell>
        <mxCell id="wwEhSpKqhu7WoPCeO-P2-55" value="&lt;font style=&quot;font-size: 8px;&quot;&gt;Last five points + one day before + two days before + three days before&lt;/font&gt;" style="rounded=0;whiteSpace=wrap;html=1;fillColor=#b1ddf0;strokeColor=#10739e;fontSize=8;" parent="1" vertex="1">
          <mxGeometry x="810" y="319" width="150" height="40" as="geometry" />
        </mxCell>
        <mxCell id="wwEhSpKqhu7WoPCeO-P2-68" value="Last Base Model Selected" style="rounded=1;whiteSpace=wrap;html=1;fillColor=#ffe6cc;strokeColor=#d79b00;" parent="1" vertex="1">
          <mxGeometry x="439.5" y="439" width="161" height="40" as="geometry" />
        </mxCell>
        <mxCell id="Kr0yp0zaAIBSXRZyDndK-22" value="9" style="ellipse;whiteSpace=wrap;html=1;" parent="1" vertex="1">
          <mxGeometry x="214" y="234" width="30" height="30" as="geometry" />
        </mxCell>
        <mxCell id="Kr0yp0zaAIBSXRZyDndK-23" value="10" style="ellipse;whiteSpace=wrap;html=1;" parent="1" vertex="1">
          <mxGeometry x="385" y="234" width="30" height="30" as="geometry" />
        </mxCell>
        <mxCell id="Kr0yp0zaAIBSXRZyDndK-24" value="11" style="ellipse;whiteSpace=wrap;html=1;" parent="1" vertex="1">
          <mxGeometry x="585" y="234" width="30" height="30" as="geometry" />
        </mxCell>
        <mxCell id="Kr0yp0zaAIBSXRZyDndK-25" value="12" style="ellipse;whiteSpace=wrap;html=1;" parent="1" vertex="1">
          <mxGeometry x="755" y="234" width="30" height="30" as="geometry" />
        </mxCell>
        <mxCell id="Kr0yp0zaAIBSXRZyDndK-26" value="13" style="ellipse;whiteSpace=wrap;html=1;" parent="1" vertex="1">
          <mxGeometry x="935" y="234" width="30" height="30" as="geometry" />
        </mxCell>
      </root>
    </mxGraphModel>
  </diagram>
</mxfile>
